<svg id="documents-notes-pages" xmlns="http://www.w3.org/2000/svg" width="24" height="24" viewBox="0 0 24 24">
  <g id="Group_2" data-name="Group 2">
    <path id="Path_6" data-name="Path 6" d="M14,21H6a2,2,0,0,1-2-2V9A2,2,0,0,1,6,7h8a2,2,0,0,1,2,2V19A2,2,0,0,1,14,21Z" fill="none" stroke="currentColor" stroke-linecap="round" stroke-linejoin="round" stroke-width="1.5"/>
    <path id="Path_7" data-name="Path 7" d="M16,17h2a2,2,0,0,0,2-2V5a2,2,0,0,0-2-2H10A2,2,0,0,0,8,5V7" fill="none" stroke="currentColor" stroke-linecap="round" stroke-linejoin="round" stroke-width="1.5"/>
    <path id="Path_8" data-name="Path 8" d="M8,12h4" fill="none" stroke="currentColor" stroke-linecap="round" stroke-linejoin="round" stroke-width="1.5"/>
    <path id="Path_9" data-name="Path 9" d="M8,16h4" fill="none" stroke="currentColor" stroke-linecap="round" stroke-linejoin="round" stroke-width="1.5"/>
  </g>
  <path id="Path_10" data-name="Path 10" d="M0,0H24V24H0Z" fill="none"/>
</svg>
