<svg id="user-modern-style-2-circle" xmlns="http://www.w3.org/2000/svg" width="24" height="24" viewBox="0 0 24 24">
  <rect id="Rectangle_18" data-name="Rectangle 18" width="24" height="24" fill="none"/>
  <path id="Path_14" data-name="Path 14" d="M14.744,9.149c.008.234.008.469,0,.7A2.747,2.747,0,0,1,12,12.5h0A2.747,2.747,0,0,1,9.256,9.851c-.008-.234-.008-.469,0-.7A2.747,2.747,0,0,1,12,6.5h0a2.747,2.747,0,0,1,2.744,2.649Z" fill="none" stroke="currentColor" stroke-linecap="round" stroke-linejoin="round" stroke-width="1.5"/>
  <path id="Path_15" data-name="Path 15" d="M7.5,16.5a10.625,10.625,0,0,1,9,0" fill="none" stroke="currentColor" stroke-linecap="round" stroke-linejoin="round" stroke-width="1.5"/>
  <circle id="Ellipse_2" data-name="Ellipse 2" cx="9.5" cy="9.5" r="9.5" transform="translate(2.5 2.5)" fill="none" stroke="currentColor" stroke-linecap="round" stroke-linejoin="round" stroke-width="1.5"/>
</svg>
