<svg id="settings.2" xmlns="http://www.w3.org/2000/svg" width="24" height="24" viewBox="0 0 24 24">
  <path id="Path_13" data-name="Path 13" d="M12.8,3a1,1,0,0,1,.941.662l.508,1.415a1.006,1.006,0,0,0,.442.528l1.507.87a1,1,0,0,0,.677.118l1.48-.267A1,1,0,0,1,19.4,6.81l.8,1.38a1,1,0,0,1-.1,1.146l-.971,1.148a1,1,0,0,0-.237.646v1.74a1,1,0,0,0,.237.646l.971,1.148a1,1,0,0,1,.1,1.146l-.8,1.38a1,1,0,0,1-1.044.484l-1.48-.267a1,1,0,0,0-.677.118l-1.507.87a1.006,1.006,0,0,0-.442.528l-.508,1.415A1,1,0,0,1,12.8,21H11.2a1,1,0,0,1-.941-.662l-.508-1.415A1.009,1.009,0,0,0,9.31,18.4L7.8,17.525a1,1,0,0,0-.677-.118l-1.48.267A1,1,0,0,1,4.6,17.19l-.8-1.38a1,1,0,0,1,.1-1.146l.971-1.148a1,1,0,0,0,.237-.646V11.13a1,1,0,0,0-.237-.646L3.91,9.336a1,1,0,0,1-.1-1.146l.8-1.38a1,1,0,0,1,1.044-.484l1.48.267a1,1,0,0,0,.677-.118l1.508-.87a1.009,1.009,0,0,0,.441-.528l.508-1.415A1,1,0,0,1,11.2,3Z" fill="none" stroke="currentColor" stroke-linecap="round" stroke-linejoin="round" stroke-width="1.5"/>
  <circle id="Ellipse_1" data-name="Ellipse 1" cx="2.75" cy="2.75" r="2.75" transform="translate(9.25 9.25)" fill="none" stroke="currentColor" stroke-linecap="round" stroke-linejoin="round" stroke-width="1.5"/>
  <rect id="Rectangle_16" data-name="Rectangle 16" width="24" height="24" fill="none"/>
</svg>
