<svg id="folder-big-clip" xmlns="http://www.w3.org/2000/svg" width="24" height="24" viewBox="0 0 24 24">
  <path id="Path_11" data-name="Path 11" d="M12,20h7a2,2,0,0,0,2-2V8.94a2,2,0,0,0-2-2H12.529A1,1,0,0,1,11.7,6.5L10.3,4.437A1,1,0,0,0,9.471,4H5A2,2,0,0,0,3,6v4" fill="none" stroke="currentColor" stroke-linecap="round" stroke-linejoin="round" stroke-width="1.5"/>
  <path id="Path_12" data-name="Path 12" d="M6,17V13.5A1.5,1.5,0,0,1,7.5,12h0A1.5,1.5,0,0,1,9,13.5V17a3,3,0,0,1-3,3H6a3,3,0,0,1-3-3V14" fill="none" stroke="currentColor" stroke-linecap="round" stroke-linejoin="round" stroke-width="1.5"/>
  <rect id="Rectangle_11" data-name="Rectangle 11" width="24" height="24" fill="none"/>
</svg>
